<?xml version="1.0" standalone="no"?>
<!DOCTYPE svg PUBLIC "-//W3C//DTD SVG 20010904//EN"
 "http://www.w3.org/TR/2001/REC-SVG-20010904/DTD/svg10.dtd">
<svg version="1.0" xmlns="http://www.w3.org/2000/svg"
 width="512.000000pt" height="512.000000pt" viewBox="0 0 512.000000 512.000000"
 preserveAspectRatio="xMidYMid meet">
<metadata>
Created by potrace 1.14, written by Peter Selinger 2001-2017
</metadata>
<g transform="translate(0.000000,512.000000) scale(0.100000,-0.100000)"
fill="#000000" stroke="none">
<path d="M2191 5102 c-18 -11 -44 -36 -57 -58 -22 -35 -24 -51 -24 -160 l0
-120 -97 -24 c-214 -51 -462 -158 -661 -284 -92 -58 -123 -81 -221 -161 -360
-293 -630 -716 -745 -1165 -34 -132 -42 -173 -52 -256 -3 -23 -7 -53 -9 -65
-3 -13 -8 -85 -11 -159 l-6 -135 -138 -230 c-75 -126 -143 -241 -150 -254 -35
-68 -13 -155 48 -193 34 -21 52 -23 205 -28 l169 -5 33 -80 c174 -427 444
-763 825 -1024 255 -175 538 -291 858 -351 l113 -21 242 -146 c133 -80 261
-154 285 -165 77 -35 149 -11 191 63 18 32 21 54 21 156 l0 119 78 19 c320 75
617 223 892 443 106 85 228 209 359 368 79 95 233 358 281 479 13 33 27 65 31
70 10 15 78 228 94 298 14 63 20 92 35 183 6 36 32 90 96 195 48 79 94 158
104 174 9 17 35 60 58 97 69 112 80 139 77 189 -2 54 -25 89 -76 118 -32 18
-54 21 -156 21 l-119 0 -18 78 c-76 325 -249 666 -464 917 -60 70 -197 209
-247 250 -26 22 -53 45 -59 50 -6 6 -36 28 -66 50 -30 22 -57 42 -60 46 -12
14 -172 110 -265 156 -150 77 -199 97 -330 138 -175 54 -172 53 -292 75 l-111
20 -248 150 c-137 83 -260 155 -274 161 -44 20 -103 20 -139 1z m869 -972 c36
-11 74 -24 85 -29 11 -5 49 -22 85 -38 273 -117 528 -333 708 -600 47 -69 129
-231 157 -308 10 -27 22 -54 25 -60 4 -5 10 -27 14 -47 l7 -38 -130 0 c-152 0
-184 -10 -225 -74 -37 -56 -30 -110 28 -208 23 -40 54 -93 68 -118 14 -25 81
-139 148 -255 l122 -210 -16 -63 c-54 -204 -210 -474 -372 -643 -150 -158
-289 -263 -463 -349 -86 -43 -256 -110 -278 -110 -10 0 -13 33 -13 131 0 115
-3 136 -21 169 -25 44 -63 68 -118 76 -47 7 -45 8 -421 -211 -140 -82 -267
-155 -281 -164 -24 -14 -33 -12 -127 17 -221 71 -493 239 -651 403 -68 70
-105 114 -153 179 -54 74 -138 210 -138 223 0 4 30 7 67 7 169 0 244 128 153
260 -10 14 -103 174 -208 355 l-190 330 18 100 c11 55 26 125 35 155 9 30 20
69 24 85 5 17 16 44 25 60 9 17 16 34 16 39 0 16 89 186 134 256 123 190 282
351 471 477 89 60 217 131 272 151 15 6 59 22 98 36 38 14 76 26 82 26 10 0
13 -33 13 -132 0 -122 2 -134 25 -174 29 -49 91 -79 144 -71 18 3 101 45 184
93 84 48 190 109 237 136 47 27 92 53 100 58 81 51 168 99 180 99 8 0 44 -8
80 -19z"/>
<path d="M1913 3303 c-35 -7 -90 -68 -97 -108 -14 -75 13 -133 78 -165 41 -19
58 -20 672 -20 579 0 632 1 663 18 55 27 76 64 76 132 0 68 -21 105 -76 132
-31 17 -82 18 -664 17 -346 -1 -640 -4 -652 -6z"/>
<path d="M1898 2692 c-83 -39 -112 -137 -61 -213 47 -71 28 -69 731 -69 577 0
630 1 661 18 55 27 76 64 76 132 0 68 -21 105 -76 132 -31 17 -84 18 -664 18
-575 -1 -633 -2 -667 -18z"/>
<path d="M1912 2103 c-13 -3 -38 -19 -56 -38 -53 -53 -58 -135 -13 -197 44
-59 26 -58 719 -58 583 0 636 1 667 18 55 27 76 64 76 132 0 68 -21 105 -76
132 -31 17 -82 18 -664 17 -346 -1 -640 -4 -653 -6z"/>
</g>
</svg>
